<svg width="120" height="120" viewBox="0 0 120 120" fill="none" xmlns="http://www.w3.org/2000/svg">
<circle cx="60" cy="60" r="60" fill="#6FCF97" fill-opacity="0.05"/>
<path d="M89.8747 62.5024C89.2911 56.6323 86.6686 51.0982 82.49 46.9194C78.919 43.3486 74.5482 41.0539 69.9491 40.0335V36.8078C71.8275 36.3405 73.2238 34.6402 73.2238 32.6192C73.2238 30.2391 71.2875 28.3027 68.9073 28.3027H59.7665C57.3864 28.3027 55.4501 30.2391 55.4501 32.6192C55.4501 34.6401 56.8463 36.3404 58.7246 36.8078V40.0425C54.1396 41.0672 49.7833 43.3587 46.2225 46.9196C45.4432 47.6988 44.7246 48.5163 44.0669 49.3659C44.035 49.3634 44.0031 49.361 43.9706 49.361H34.9237C34.2227 49.361 33.6541 49.9294 33.6541 50.6306C33.6541 51.3318 34.2227 51.9001 34.9237 51.9001H42.3394C41.4086 53.4585 40.658 55.0951 40.0867 56.7798H26.2696C25.5685 56.7798 25 57.3482 25 58.0493C25 58.7505 25.5685 59.3189 26.2696 59.3189H39.3693C39.0034 60.925 38.7934 62.5595 38.7392 64.1987H33.1251C32.4241 64.1987 31.8556 64.767 31.8556 65.4682C31.8556 66.1694 32.4241 66.7378 33.1251 66.7378H38.7797C38.8869 68.3811 39.1511 70.0157 39.5724 71.6175H31.3478C30.6467 71.6175 30.0782 72.1859 30.0782 72.8871C30.0782 73.5883 30.6467 74.1566 31.3478 74.1566H40.3826C41.6281 77.4512 43.5744 80.5392 46.2225 83.1872C50.4051 87.3699 55.9449 89.993 61.8212 90.5736C62.6598 90.6563 63.4991 90.6974 64.3373 90.6974C69.2913 90.6974 74.1824 89.2636 78.3326 86.561C78.9201 86.1784 79.0863 85.3919 78.7037 84.8044C78.321 84.2168 77.5345 84.0506 76.947 84.4333C67.8625 90.349 55.696 89.0699 48.0179 81.3918C39.0089 72.3828 39.0089 57.7242 48.0179 48.7151C57.0267 39.7062 71.6853 39.7062 80.6944 48.7151C88.3624 56.3832 89.6485 68.5392 83.7523 77.6193C83.3704 78.2074 83.5376 78.9937 84.1255 79.3755C84.7138 79.7574 85.5 79.5902 85.8817 79.0021C89.032 74.1505 90.4501 68.2909 89.8747 62.5024ZM57.9892 32.6193C57.9892 31.6392 58.7864 30.842 59.7665 30.842H68.9073C69.8874 30.842 70.6847 31.6392 70.6847 32.6193C70.6847 33.5994 69.8874 34.3967 68.9073 34.3967H68.6795H59.9942H59.7665C58.7864 34.3967 57.9892 33.5993 57.9892 32.6193ZM61.2637 39.6061V36.9358H67.41V39.6015C65.3691 39.3587 63.3043 39.3603 61.2637 39.6061Z" fill="#6FCF97"/>
<path d="M81.5928 81.0198C81.2576 81.0198 80.9313 81.1556 80.6953 81.3917C80.4579 81.6279 80.3232 81.9554 80.3232 82.2893C80.3232 82.6232 80.4579 82.9507 80.6953 83.1869C80.9313 83.4243 81.2577 83.5588 81.5928 83.5588C81.9267 83.5588 82.2529 83.4243 82.4903 83.1869C82.7265 82.9507 82.8623 82.6232 82.8623 82.2893C82.8623 81.9554 82.7266 81.6279 82.4903 81.3917C82.2529 81.1556 81.9265 81.0198 81.5928 81.0198Z" fill="#6FCF97"/>
<path d="M64.3565 45.3586C53.497 45.3586 44.6621 54.1934 44.6621 65.0531C44.6621 75.9127 53.497 84.7475 64.3565 84.7475C75.216 84.7475 84.0509 75.9127 84.0509 65.0531C84.0509 54.1934 75.216 45.3586 64.3565 45.3586ZM64.3565 82.2084C54.897 82.2084 47.2012 74.5125 47.2012 65.0531C47.2012 55.5936 54.897 47.8977 64.3565 47.8977C73.8161 47.8977 81.5118 55.5936 81.5118 65.0531C81.5118 74.5125 73.8161 82.2084 64.3565 82.2084Z" fill="#6FCF97"/>
<path d="M72.3866 55.2273L66.0986 61.5153C65.5727 61.2552 64.9812 61.1084 64.356 61.1084C63.7306 61.1084 63.1392 61.2552 62.6134 61.5153L59.7992 58.701C59.3033 58.2053 58.4997 58.2053 58.0037 58.701C57.5079 59.1968 57.5079 60.0007 58.0037 60.4964L60.8179 63.3107C60.5577 63.8365 60.411 64.428 60.411 65.0532C60.411 67.2285 62.1806 68.9982 64.356 68.9982C66.5314 68.9982 68.301 67.2285 68.301 65.0532C68.301 64.428 68.1541 63.8365 67.8941 63.3107L73.9976 57.2072L74.182 57.0227C74.6778 56.5269 74.6778 55.723 74.182 55.2273C73.6863 54.7315 72.8827 54.7315 72.3866 55.2273ZM64.356 66.4593C63.5808 66.4593 62.9501 65.8286 62.9501 65.0534C62.9501 64.2782 63.5808 63.6475 64.356 63.6475C65.1312 63.6475 65.7619 64.2782 65.7619 65.0534C65.7619 65.8286 65.1312 66.4593 64.356 66.4593Z" fill="#6FCF97"/>
<path d="M77.9301 63.7998H76.7539C76.0529 63.7998 75.4844 64.3682 75.4844 65.0693C75.4844 65.7705 76.0529 66.3389 76.7539 66.3389H77.9301C78.6312 66.3389 79.1997 65.7705 79.1997 65.0693C79.1997 64.3682 78.6312 63.7998 77.9301 63.7998Z" fill="#6FCF97"/>
<path d="M51.9583 63.7676H50.7822C50.0812 63.7676 49.5127 64.3359 49.5127 65.0371C49.5127 65.7383 50.0812 66.3066 50.7822 66.3066H51.9583C52.6594 66.3066 53.2278 65.7383 53.2278 65.0371C53.2278 64.3359 52.6594 63.7676 51.9583 63.7676Z" fill="#6FCF97"/>
<path d="M64.3711 53.9244C65.0721 53.9244 65.6406 53.356 65.6406 52.6549V51.4788C65.6406 50.7776 65.0721 50.2092 64.3711 50.2092C63.6701 50.2092 63.1016 50.7776 63.1016 51.4788V52.6549C63.1016 53.356 63.6701 53.9244 64.3711 53.9244Z" fill="#6FCF97"/>
<path d="M64.3408 76.1816C63.6398 76.1816 63.0713 76.75 63.0713 77.4512V78.6273C63.0713 79.3284 63.6398 79.8968 64.3408 79.8968C65.0419 79.8968 65.6104 79.3284 65.6104 78.6273V77.4512C65.6104 76.75 65.0419 76.1816 64.3408 76.1816Z" fill="#6FCF97"/>
<path d="M26.2695 71.6169C25.9356 71.6169 25.6081 71.7528 25.372 71.9889C25.1358 72.225 25 72.5526 25 72.8865C25 73.2216 25.1357 73.5479 25.372 73.784C25.6082 74.0202 25.9356 74.156 26.2695 74.156C26.6034 74.156 26.931 74.0202 27.167 73.784C27.4031 73.5479 27.5391 73.2204 27.5391 72.8865C27.5391 72.5526 27.4032 72.225 27.167 71.9889C26.931 71.7528 26.6034 71.6169 26.2695 71.6169Z" fill="#6FCF97"/>
</svg>
