<svg width="137" height="137" viewBox="0 0 137 137" fill="none" xmlns="http://www.w3.org/2000/svg">
<circle cx="68.5" cy="68.5" r="68.5" fill="#FCFCFC"/>
<path d="M95.5159 77.5992L89.9818 82.118C99.2936 78.2836 98.5197 78.5498 99.2535 78.2969C99.4113 75.9482 96.8228 76.5862 95.5159 77.5992ZM61.163 90.7108C58.3476 91.3619 55.7863 92.5071 53.466 94.3999L57.1003 98.5942C57.9937 97.8344 59.6203 96.2078 62.6495 95.7971C65.9588 95.3466 66.5198 95.7743 75.5309 98.3324C78.0539 98.9088 79.8551 98.4167 81.9226 97.2577L101.957 85.8001C102.464 85.4803 104.571 84.1211 103.435 82.1047C102.806 81.1032 100.473 82.9826 99.4589 83.5155C96.1908 85.2071 88.254 89.2964 85.199 90.5079C85.199 90.5079 79.7961 92.758 77.1666 92.395C74.3235 92.0051 66.8618 90.7832 66.7951 90.7698C66.8084 90.7831 62.6307 90.3919 61.163 90.7108ZM41.8549 107.721L46.5307 112.397C46.5975 112.464 46.7176 112.477 46.7976 112.397L57.2652 103.372C57.3319 103.306 57.3452 103.212 57.2784 103.145C55.7552 101.382 54.8599 100.354 53.1764 98.4035" fill="#E5FCEF"/>
<path d="M101.134 76.9455C101.023 72.1568 95.0327 70.0383 91.9111 73.6449L84.6158 82.0737C84.3179 82.4178 84.0695 82.7963 83.8714 83.2025L83.4468 83.3775C83.0813 81.8965 82.0253 80.4031 79.8174 79.7772C70.1323 77.0291 68.8735 76.4834 66.2569 76.7129C66.248 76.7137 66.2389 76.7146 66.2301 76.7155C59.1009 77.4796 57.4672 77.7132 53.8844 79.7753C51.2763 81.2763 48.7387 83.0325 46.3241 85.0052L45.8304 84.4333C44.7642 83.2037 42.9166 83.0704 41.6895 84.1304L30.2466 94.0107C28.9493 95.1314 28.8766 97.1225 30.0888 98.3347L35.3624 103.608C35.9056 104.152 36.786 104.152 37.3291 103.608C37.8723 103.065 37.8723 102.185 37.3291 101.642L32.0555 96.368C32.0202 96.3327 32.0033 96.2895 32.0051 96.2396C32.0068 96.1897 32.0269 96.1478 32.0645 96.1154L43.5073 86.2352C43.5396 86.2074 43.5772 86.1947 43.6196 86.198C43.662 86.2013 43.6973 86.2208 43.7255 86.2511C46.4731 89.4333 54.269 98.4617 57.052 101.685C57.1078 101.749 57.1005 101.847 57.0359 101.903L46.7372 110.796C46.6607 110.862 46.545 110.857 46.4736 110.786L41.918 106.231C41.3749 105.687 40.4945 105.687 39.9513 106.231C39.4082 106.774 39.4082 107.654 39.9513 108.197L44.5069 112.753C45.6032 113.849 47.3816 113.914 48.5549 112.901L58.8534 104.008C60.079 102.95 60.2152 101.093 59.157 99.8671L58.6969 99.334L59.4272 98.7035C60.3553 97.9024 61.4913 97.392 62.7126 97.2273C65.3216 96.8761 65.4231 97.1338 74.2728 99.643C74.2942 99.6492 74.3157 99.6547 74.3376 99.6598C75.7175 99.9806 79.2879 100.487 82.6957 98.2869L102.416 86.9987C102.439 86.9855 102.462 86.9716 102.484 86.957C107.79 83.5003 105.213 77.5392 101.134 76.9455ZM98.3494 77.2261C97.7217 77.429 99.0772 76.9329 89.2292 80.9933L94.0138 75.465C95.552 73.688 98.4949 74.8783 98.3494 77.2261ZM100.995 84.6065C100.939 84.6388 81.2655 95.8989 81.2112 95.9341C78.7997 97.504 76.2959 97.2544 74.998 96.958C66.1413 94.4441 65.5946 94.0328 62.3407 94.4709C59.4488 94.8605 57.8751 96.3686 56.8783 97.2289C55.4656 95.5928 48.9758 88.0768 48.1416 87.1109C50.4218 85.2529 52.8149 83.5998 55.2714 82.1858C58.2911 80.4477 59.379 80.2469 66.5126 79.4827C68.5416 79.307 69.6528 79.7852 79.0583 82.453C81.0423 83.0156 80.8708 84.6434 80.774 85.1149C80.7729 85.1194 80.7728 85.1237 80.7719 85.128C80.7699 85.1371 80.7672 85.1456 80.7656 85.1548C80.6463 85.718 80.2548 86.6367 78.9722 86.4601C76.1759 86.0751 69.5179 85.185 69.4509 85.1762C68.6896 85.0744 67.9899 85.609 67.8883 86.3704C67.8286 86.8174 67.988 87.2426 68.2841 87.5387C68.4923 87.747 68.768 87.8909 69.0825 87.933C69.1494 87.9419 75.8021 88.8315 78.5929 89.2155C81.1727 89.5707 82.6859 87.9625 83.2717 86.4583C103.473 78.1291 98.3477 80.1833 99.9372 79.6893C102.377 79.3529 104.074 82.5554 100.995 84.6065Z" fill="#6FCF97"/>
<path d="M68.0001 32.9932C77.0465 32.9932 84.3796 40.3262 84.3796 49.3727C84.3796 58.4191 77.0465 65.7521 68.0001 65.7521C58.9537 65.7521 51.6206 58.4191 51.6206 49.3727C51.6308 40.3307 58.9582 33.0034 68.0001 32.9932Z" fill="#E5FCEF"/>
<path d="M66.8908 32.9127C66.8908 32.9127 57.7777 39.596 57.7777 48.6424C57.7777 57.6888 66.8908 65.6717 66.8908 65.6717C57.8444 65.6717 50.5113 58.3386 50.5113 49.2922C50.5215 40.2503 57.8488 32.9229 66.8908 32.9127Z" fill="#C4FFDD"/>
<path d="M49 49.3727C49 59.8662 57.5064 68.3727 68 68.3727C78.4936 68.3727 87 59.8662 87 49.3727C87 38.8791 78.4936 30.3727 68 30.3727C57.5115 30.3842 49.0122 38.8842 49 49.3727ZM68 32.9932C77.0464 32.9932 84.3795 40.3263 84.3795 49.3727C84.3795 58.4191 77.0464 65.7522 68 65.7522C58.9536 65.7522 51.6205 58.4191 51.6205 49.3727C51.6307 40.3308 58.9581 33.0034 68 32.9932Z" fill="#6FCF97"/>
<path d="M67.9239 54.269C67.7995 54.2445 67.672 54.2401 67.546 54.2573C66.2837 54.1234 65.3314 53.1504 65.3293 51.993C65.3293 51.4383 64.8356 50.9886 64.2268 50.9886C63.618 50.9886 63.1244 51.4383 63.1244 51.993C63.1276 53.9257 64.5466 55.6187 66.5921 56.1302V57.1346C66.5921 57.6892 67.0857 58.1389 67.6946 58.1389C68.3034 58.1389 68.797 57.6892 68.797 57.1346V56.191C71.158 55.7408 72.7627 53.7374 72.5145 51.5516C72.2658 49.3658 70.2445 47.7047 67.8324 47.7042C66.45 47.7042 65.3293 46.6832 65.3293 45.4238C65.3293 44.1644 66.45 43.1433 67.8324 43.1433C69.2147 43.1433 70.3355 44.1644 70.3355 45.4238C70.3355 45.9785 70.8291 46.4282 71.4379 46.4282C72.0467 46.4282 72.5404 45.9785 72.5404 45.4238C72.5371 43.3944 70.9766 41.6441 68.797 41.2253V40.3111C68.797 39.7565 68.3034 39.3068 67.6946 39.3068C67.0857 39.3068 66.5921 39.7565 66.5921 40.3111V41.2866C64.3173 41.8525 62.8531 43.8647 63.1664 45.9942C63.4797 48.1236 65.4741 49.713 67.8324 49.7125C69.1964 49.7125 70.3091 50.7076 70.3339 51.9498C70.3592 53.1921 69.2869 54.2239 67.9239 54.269V54.269Z" fill="#6FCF97"/>
<path d="M69.331 25.6873V13.3036C69.331 12.5837 68.7847 12 68.1108 12C67.437 12 66.8906 12.5837 66.8906 13.3036V25.6873C66.8906 26.4072 67.437 26.9908 68.1108 26.9908C68.7847 26.9908 69.331 26.4072 69.331 25.6873Z" fill="#C4FFDD"/>
<path d="M78.7473 27.5542V21.7617C78.7473 21.0508 78.2009 20.4745 77.5271 20.4745C76.8532 20.4745 76.3069 21.0508 76.3069 21.7617V27.5542C76.3069 28.2651 76.8532 28.8415 77.5271 28.8415C78.2009 28.8415 78.7473 28.2651 78.7473 27.5542Z" fill="#C4FFDD"/>
<path d="M59.4589 27.5869V21.7944C59.4589 21.0836 58.9126 20.5072 58.2387 20.5072C57.5649 20.5072 57.0186 21.0836 57.0186 21.7944V27.5869C57.0186 28.2978 57.5649 28.8742 58.2387 28.8742C58.9126 28.8742 59.4589 28.2978 59.4589 27.5869Z" fill="#C4FFDD"/>
</svg>
