<svg width="137" height="137" viewBox="0 0 137 137" fill="none" xmlns="http://www.w3.org/2000/svg">
<circle cx="68.5" cy="68.5" r="68.5" fill="#FCFCFC"/>
<path d="M87.7566 47.5505C87.7566 47.5505 89.9465 44.2054 90.1238 40.3007C90.1238 36.7614 89.5551 34.7446 88.9958 33.4407C85.4745 25.2316 74.2463 23.3719 68.4253 30.7513C61.3685 21.748 46.8665 26.8627 46.8772 38.1758C46.8896 50.0702 57.2319 59.1669 66.9073 63.7144C67.9032 64.1827 69.0368 64.1587 69.9821 63.7113C76.9386 60.4249 87.7566 47.5505 87.7566 47.5505Z" fill="#E5FCEF"/>
<path d="M58.0289 48.6532C58.0289 48.6532 52.8721 40.1076 54.749 36.6943C54.749 36.6943 56.0609 27.3928 66.4882 29.7738C60.0658 21.2577 46.8675 26.0957 46.8772 36.7966C46.8885 48.0473 56.1288 57.0962 64.9345 61.3976C65.8408 61.8406 67.6402 63.3415 68.5005 62.9183L58.0289 48.6532Z" fill="#C4FFDD"/>
<path d="M64.2313 29.9901C66.3733 32.1316 68.5279 32.1316 68.5279 32.1316C70.0572 32.0957 71.8276 31.5389 72.5943 30.3045C75.8496 25.0634 84.9354 26.8286 87.2132 32.163C87.8273 33.6005 88.782 36.3963 90.2206 35.7817C91.6589 35.1675 91.6177 33.5036 91.0035 32.0657C87.1365 23.0126 74.806 20.9617 68.4136 29.0997C60.664 19.1709 44.7383 24.8114 44.75 37.2875C44.7636 50.4047 56.1212 60.4366 66.7466 65.4516C67.8402 65.968 69.0851 65.9416 70.1232 65.4482C77.7626 61.8239 85.884 55.3925 89.6427 47.626C90.324 46.2183 90.7982 44.5249 89.3909 43.8439C87.9825 43.1617 86.9988 45.5238 86.3178 46.9314C83.2552 53.2594 74.7 60.0033 68.4264 63.1641C59.5889 58.7939 47.5883 47.826 47.5777 37.6364C47.5709 29.9521 57.1582 22.9185 64.2313 29.9901Z" fill="#6FCF97"/>
<path d="M35.3279 55.0076L34.8021 62.3C30.9959 53.1533 31.3644 53.8667 31.0169 53.1872C32.5536 51.4479 35.499 52.6337 35.3279 55.0076ZM33.5763 83.6521C31.4268 82.3018 30.5098 80.6946 29.8877 78.4545L23.9271 56.5351C23.8121 55.9608 23.4666 53.5372 25.6533 52.9215C26.7827 52.658 27.5982 53.0256 28.2393 53.9517C28.5265 54.3668 27.8477 52.8276 35.1507 70.3775C34.5013 71.8552 34.4341 74.0622 36.5095 75.6353C38.7544 77.3371 44.0876 81.4125 44.1412 81.4535C44.3932 81.6461 44.6901 81.7394 44.9845 81.7393C45.4029 81.7393 45.8169 81.5511 46.0906 81.193C46.557 80.5827 46.4403 79.7099 45.8301 79.2436C45.7764 79.2025 40.4392 75.1239 38.1896 73.4188C36.8655 72.4153 37.7339 70.9977 38.7017 70.4203C39.386 70.0129 40.1041 70.0455 40.9622 70.5246C49.4996 75.2891 50.6233 75.7364 51.9342 77.2956C56.4367 82.8794 57.0648 83.7916 57.971 87.1558C58.7084 89.8926 59.2314 92.7534 59.53 95.6798L46.1976 96.6565C46.1138 95.5143 46.1076 93.2336 44.2854 90.8439C42.2939 88.233 41.6167 88.1371 33.5763 83.6521ZM64.4854 113.545C64.4514 113.582 64.4089 113.6 64.359 113.6H43.9687C43.8675 113.6 43.7827 113.521 43.7753 113.421L42.7813 99.8502C42.7752 99.7652 42.8394 99.6912 42.9244 99.6847C45.2111 99.5173 60.7336 98.3801 63.2609 98.1949C63.265 98.1945 63.2693 98.1943 63.2734 98.1943C63.3107 98.1943 63.3444 98.207 63.3734 98.232C63.4057 98.2597 63.4235 98.2955 63.4266 98.3378L64.5312 113.415C64.5345 113.465 64.5191 113.509 64.4854 113.545Z" fill="white"/>
<path d="M101.958 55.0076L102.484 62.3C106.29 53.1533 105.921 53.8667 106.269 53.1872C104.732 51.4479 101.787 52.6337 101.958 55.0076ZM103.71 83.6521C105.859 82.3018 106.776 80.6946 107.398 78.4545L113.359 56.5351C113.474 55.9608 113.819 53.5372 111.633 52.9215C110.503 52.658 109.688 53.0256 109.047 53.9517C108.759 54.3668 109.438 52.8276 102.135 70.3775C102.785 71.8552 102.852 74.0622 100.776 75.6353C98.5315 77.3371 93.1983 81.4125 93.1447 81.4535C92.8927 81.6461 92.5958 81.7394 92.3014 81.7393C91.883 81.7393 91.469 81.5511 91.1953 81.193C90.7288 80.5827 90.8456 79.7099 91.4558 79.2436C91.5094 79.2025 96.8467 75.1239 99.0963 73.4188C100.42 72.4153 99.552 70.9977 98.5842 70.4203C97.8999 70.0129 97.1818 70.0455 96.3237 70.5246C87.7862 75.2891 86.6626 75.7364 85.3517 77.2956C80.8492 82.8794 80.2211 83.7916 79.3149 87.1558C78.5775 89.8926 78.0545 92.7534 77.7559 95.6798L91.0883 96.6565C91.1721 95.5143 91.1782 93.2336 93.0005 90.8439C94.992 88.233 95.6692 88.1371 103.71 83.6521ZM72.8005 113.545C72.8345 113.582 72.877 113.6 72.9269 113.6H93.3172C93.4184 113.6 93.5031 113.521 93.5106 113.421L94.5045 99.8502C94.5107 99.7652 94.4465 99.6912 94.3615 99.6847C92.0748 99.5173 76.5523 98.3801 74.0249 98.1949C74.0209 98.1945 74.0166 98.1943 74.0125 98.1943C73.9752 98.1943 73.9414 98.207 73.9125 98.232C73.8802 98.2597 73.8624 98.2955 73.8592 98.3378L72.7547 113.415C72.7513 113.465 72.7667 113.509 72.8005 113.545Z" fill="white"/>
<path d="M33.2768 54.4399L33.9947 61.5484C30.1216 52.2527 30.4806 52.9881 30.1405 52.2904C31.6898 50.518 33.0689 52.7995 33.2768 54.4399ZM48.2967 88.0024C49.827 90.4536 50.8284 93.0745 51.1307 96.0536L45.595 96.4496C45.5005 95.2805 45.5005 92.9802 43.649 90.5479C41.6275 87.8893 40.9284 87.795 32.7478 83.232C30.5562 81.8555 29.6304 80.234 28.9881 77.9525L22.9234 55.6844C22.7912 55.0999 22.2621 52.6487 24.4915 52.0264C25.644 51.7625 25.9652 54.7416 26.3052 55.8352C27.4199 59.3423 30.1405 67.846 31.4441 70.8629C31.4441 70.8629 33.6735 76.2744 35.7895 77.8771C38.0756 79.6118 44.2158 84.0239 44.2725 84.0616C44.2536 84.0616 47.4843 86.7391 48.2967 88.0024ZM49.9215 113.683H43.309C43.2145 113.683 43.12 113.608 43.12 113.495L42.0998 99.7115C42.0998 99.6173 42.1565 99.5418 42.2509 99.5418C44.5748 99.3721 45.9351 99.2779 48.5045 99.0893" fill="#E5FCEF"/>
<path d="M103.015 55.151L102.297 62.2594C106.17 52.9638 105.811 53.6991 106.151 53.0015C104.602 51.2291 103.223 53.5106 103.015 55.151ZM87.9948 88.7134C86.4645 91.1646 85.4631 93.7855 85.1608 96.7647L90.6965 97.1606C90.791 95.9916 90.791 93.6912 92.6425 91.2589C94.664 88.6003 95.3631 88.506 103.544 83.943C105.735 82.5666 106.661 80.9451 107.303 78.6636L113.368 56.3954C113.5 55.8109 114.029 53.3597 111.8 52.7375C110.648 52.4735 110.326 55.4527 109.986 56.5463C108.872 60.0534 106.151 68.5571 104.847 71.574C104.847 71.574 102.618 76.9854 100.502 78.5881C98.2159 80.3228 92.0757 84.735 92.019 84.7727C92.0379 84.7727 88.8072 87.4501 87.9948 88.7134ZM86.37 114.394H92.9826C93.077 114.394 93.1715 114.319 93.1715 114.206L94.1917 100.423C94.1917 100.328 94.135 100.253 94.0406 100.253C91.7167 100.083 90.3564 99.9889 87.787 99.8004" fill="#E5FCEF"/>
<path d="M67.2737 113.169L66.1687 98.0912C66.0492 96.4649 64.6348 95.2571 63.0261 95.3774L62.2728 95.4327C61.9603 92.3303 61.4076 89.2942 60.6249 86.3885C59.5497 82.3969 58.5594 81.0761 54.0584 75.4951C54.0528 75.4882 54.0471 75.4813 54.0415 75.4745C52.3499 73.4576 51.0665 72.9525 42.2862 68.0524C40.2815 66.9335 38.4799 67.243 37.174 68.0318L36.9975 67.6078C37.1445 67.1805 37.2367 66.7372 37.2693 66.2834L38.0709 55.1646C38.2797 52.2692 36.1052 49.7565 33.2092 49.5477C31.6987 49.4375 30.2642 49.9756 29.2153 50.9772C25.9055 48.5089 19.8763 50.9158 21.1822 57.1025C21.1948 57.1628 27.147 79.047 27.1631 79.1062C28.0172 83.0713 30.8997 85.2381 32.1024 85.987C32.2518 86.0796 35.4052 87.8197 35.5592 87.9046C40.3288 90.5357 40.7181 90.7509 42.0424 92.4871C43.3139 94.1546 43.3097 95.6898 43.3922 96.8163L42.6897 96.8679C41.0751 96.9864 39.8579 98.3961 39.9765 100.01L40.9705 113.581C41.0836 115.127 42.3871 116.338 43.9375 116.338H64.3279C66.0424 116.338 67.3989 114.879 67.2737 113.169ZM35.2964 54.9642L34.7706 62.2566C30.9644 53.1099 31.3329 53.8233 30.9854 53.1438C32.5221 51.4045 35.4675 52.5903 35.2964 54.9642ZM33.5449 83.6087C31.3953 82.2584 30.4783 80.6512 29.8562 78.4111L23.8956 56.4917C23.7806 55.9174 23.4351 53.4938 25.6218 52.8781C26.7512 52.6146 27.5667 52.9822 28.2078 53.9083C28.495 54.3234 27.8163 52.7842 35.1192 70.3341C34.4698 71.8118 34.4026 74.0188 36.478 75.5919C38.7229 77.2937 44.0561 81.3691 44.1097 81.4101C44.3617 81.6027 44.6586 81.696 44.953 81.6959C45.3715 81.6959 45.7854 81.5077 46.0591 81.1496C46.5256 80.5393 46.4089 79.6665 45.7986 79.2002C45.745 79.1591 40.4077 75.0805 38.1581 73.3754C36.8341 72.3719 37.7024 70.9543 38.6702 70.3769C39.3545 69.9695 40.0726 70.0021 40.9308 70.4812C49.4682 75.2457 50.5918 75.693 51.9027 77.2522C56.4052 82.836 57.0333 83.7482 57.9395 87.1124C58.6769 89.8492 59.1999 92.71 59.4985 95.6364L46.1662 96.6131C46.0823 95.4709 46.0762 93.1902 44.2539 90.8005C42.2624 88.1896 41.5852 88.0937 33.5449 83.6087ZM64.4539 113.502C64.4199 113.538 64.3774 113.557 64.3275 113.557H43.9372C43.8361 113.557 43.7513 113.478 43.7438 113.377L42.7499 99.8068C42.7437 99.7218 42.8079 99.6478 42.8929 99.6413C45.1796 99.4739 60.7021 98.3367 63.2295 98.1515C63.2335 98.1511 63.2378 98.1509 63.2419 98.1509C63.2792 98.1509 63.313 98.1636 63.3419 98.1886C63.3742 98.2163 63.392 98.2521 63.3952 98.2944L64.4997 113.372C64.5031 113.421 64.4877 113.465 64.4539 113.502Z" fill="#6FCF97"/>
<path d="M107.784 50.9759C104.319 47.6683 98.5854 50.4061 98.9283 55.1637L99.7299 66.2822C99.7625 66.7363 99.8546 67.1795 100.002 67.6069L99.8252 68.0308C98.5196 67.2421 96.7168 66.9328 94.713 68.0514C85.9214 72.9566 84.6454 73.4609 82.9575 75.4733C82.9518 75.4802 82.946 75.4872 82.9404 75.4941C78.4396 81.0756 77.4495 82.3959 76.3743 86.3874C75.5915 89.2931 75.0389 92.3292 74.7264 95.4315L73.9729 95.3763C72.3496 95.2607 70.9489 96.4728 70.8307 98.0901L69.7258 113.168C69.6009 114.878 70.9574 116.337 72.6717 116.337H80.1298C80.8979 116.337 81.5204 115.714 81.5204 114.946C81.5204 114.178 80.8979 113.556 80.1298 113.556H72.6717C72.6218 113.556 72.5793 113.537 72.5453 113.501C72.5112 113.464 72.4958 113.42 72.4995 113.371L73.6044 98.2931C73.6076 98.2506 73.6252 98.2149 73.6575 98.1873C73.6898 98.1597 73.7286 98.1485 73.7699 98.15C77.9629 98.4573 89.8595 99.3288 94.1065 99.64C94.1917 99.6463 94.2557 99.7207 94.2494 99.8056L93.2554 113.376C93.248 113.477 93.163 113.556 93.062 113.556H86.6195C85.8513 113.556 85.2288 114.178 85.2288 114.946C85.2288 115.714 85.8513 116.337 86.6195 116.337H93.062C94.6125 116.337 95.9161 115.126 96.0291 113.579L97.0231 100.009C97.1419 98.3946 95.9245 96.9846 94.3097 96.8662L93.6074 96.8146L93.6779 95.8524C93.7677 94.6296 94.21 93.4655 94.9572 92.4854C96.5537 90.3923 96.8077 90.5027 104.84 86.0193C104.859 86.0085 104.878 85.9972 104.897 85.9853C106.1 85.2365 108.982 83.0696 109.837 79.1045L115.799 57.1784C115.806 57.1526 115.812 57.1268 115.818 57.1006C117.125 50.9046 111.088 48.5116 107.784 50.9759ZM106.013 53.1434C105.713 53.7307 106.321 52.4215 102.228 62.2562L101.702 54.9639C101.533 52.6196 104.456 51.3804 106.013 53.1434ZM113.103 56.4911C113.086 56.5538 107.137 78.4272 107.123 78.4905C106.528 81.3058 104.581 82.8997 103.454 83.6079C95.4137 88.093 94.7362 88.1887 92.7451 90.7994C90.9758 93.1196 90.9294 95.2989 90.8329 96.612C88.677 96.4541 78.7734 95.7284 77.5006 95.6353C77.7991 92.7092 78.3223 89.8481 79.0595 87.1112C79.9657 83.7469 80.5931 82.8357 85.0969 77.2511C86.4074 75.6921 87.5312 75.2446 96.0683 70.4803C97.869 69.4751 98.8988 70.7474 99.1638 71.1493C99.1662 71.1532 99.1692 71.1564 99.1716 71.1601C99.1766 71.1679 99.1807 71.1759 99.186 71.1835C99.5 71.6661 99.8728 72.5925 98.8409 73.3746C96.5913 75.0796 91.2541 79.1581 91.2005 79.1993C90.5902 79.6656 90.4735 80.5384 90.9399 81.1487C91.2138 81.507 91.6272 81.6949 92.046 81.6949C92.3405 81.6949 92.6371 81.6018 92.8893 81.4092C92.9429 81.3682 98.2761 77.293 100.521 75.5912C102.596 74.0181 102.529 71.811 101.88 70.3331C110.275 50.1591 108.103 55.2357 108.878 53.7624C110.365 51.7995 113.829 52.864 113.103 56.4911Z" fill="#6FCF97"/>
</svg>
