<svg width="120" height="120" viewBox="0 0 120 120" fill="none" xmlns="http://www.w3.org/2000/svg">
<circle cx="60" cy="60" r="60" fill="#6FCF97" fill-opacity="0.05"/>
<mask id="path-2-inside-1" fill="white">
<path d="M85.3187 65.839C85.7617 63.918 85.9997 61.96 85.9997 60C85.9997 50.905 81.3687 42.623 73.6107 37.847C73.1377 37.557 72.5237 37.704 72.2347 38.174C71.9447 38.645 72.0917 39.26 72.5617 39.55C79.7237 43.96 83.9997 51.604 83.9997 60C83.9997 61.726 83.7997 63.451 83.4267 65.147C82.9657 65.051 82.4887 65 81.9997 65C78.1397 65 74.9997 68.141 74.9997 72C74.9997 75.859 78.1397 79 81.9997 79C85.8597 79 88.9997 75.859 88.9997 72C88.9997 69.341 87.5087 67.024 85.3187 65.839ZM81.9997 77C79.2427 77 76.9997 74.757 76.9997 72C76.9997 69.243 79.2427 67 81.9997 67C84.7567 67 86.9997 69.243 86.9997 72C86.9997 74.757 84.7567 77 81.9997 77Z"/>
</mask>
<path d="M85.3187 65.839C85.7617 63.918 85.9997 61.96 85.9997 60C85.9997 50.905 81.3687 42.623 73.6107 37.847C73.1377 37.557 72.5237 37.704 72.2347 38.174C71.9447 38.645 72.0917 39.26 72.5617 39.55C79.7237 43.96 83.9997 51.604 83.9997 60C83.9997 61.726 83.7997 63.451 83.4267 65.147C82.9657 65.051 82.4887 65 81.9997 65C78.1397 65 74.9997 68.141 74.9997 72C74.9997 75.859 78.1397 79 81.9997 79C85.8597 79 88.9997 75.859 88.9997 72C88.9997 69.341 87.5087 67.024 85.3187 65.839ZM81.9997 77C79.2427 77 76.9997 74.757 76.9997 72C76.9997 69.243 79.2427 67 81.9997 67C84.7567 67 86.9997 69.243 86.9997 72C86.9997 74.757 84.7567 77 81.9997 77Z" fill="#6FCF97"/>
<path d="M85.3187 65.839L80.4466 64.7155L79.5912 68.4249L82.9393 70.2366L85.3187 65.839ZM73.6107 37.847L76.232 33.5892L76.2242 33.5844L73.6107 37.847ZM72.2347 38.174L76.4924 40.7955L76.494 40.793L72.2347 38.174ZM72.5617 39.55L69.9362 43.8052L69.9401 43.8076L72.5617 39.55ZM83.4267 65.147L82.4074 70.042L87.248 71.05L88.31 66.221L83.4267 65.147ZM90.1909 66.9626C90.7127 64.6997 90.9997 62.3646 90.9997 60H80.9997C80.9997 61.5555 80.8108 63.1363 80.4466 64.7155L90.1909 66.9626ZM90.9997 60C90.9997 49.1659 85.4656 39.2736 76.232 33.5892L70.9895 42.1049C77.2719 45.9724 80.9997 52.6442 80.9997 60H90.9997ZM76.2242 33.5844C73.4065 31.8569 69.7141 32.7276 67.9755 35.5551L76.494 40.793C75.3334 42.6805 72.869 43.2572 70.9973 42.1097L76.2242 33.5844ZM67.9771 35.5525C66.2368 38.3789 67.1232 42.0696 69.9362 43.8052L75.1873 35.2949C77.0602 36.4505 77.6526 38.9111 76.4924 40.7955L67.9771 35.5525ZM69.9401 43.8076C75.6276 47.3097 78.9997 53.344 78.9997 60H88.9997C88.9997 49.864 83.8199 40.6104 75.1833 35.2924L69.9401 43.8076ZM78.9997 60C78.9997 61.34 78.8444 62.7046 78.5434 64.0731L88.31 66.221C88.7551 64.1974 88.9997 62.1121 88.9997 60H78.9997ZM84.4461 60.252C83.6561 60.0876 82.8376 60 81.9997 60V70C82.1398 70 82.2753 70.0145 82.4074 70.042L84.4461 60.252ZM81.9997 60C75.3778 60 69.9997 65.3801 69.9997 72H79.9997C79.9997 70.902 80.9016 70 81.9997 70V60ZM69.9997 72C69.9997 78.62 75.3778 84 81.9997 84V74C80.9016 74 79.9997 73.0981 79.9997 72H69.9997ZM81.9997 84C88.6216 84 93.9997 78.62 93.9997 72H83.9997C83.9997 73.0981 83.0978 74 81.9997 74V84ZM93.9997 72C93.9997 67.4255 91.4314 63.4615 87.6982 61.4415L82.9393 70.2366C83.5861 70.5866 83.9997 71.2566 83.9997 72H93.9997ZM81.9997 72H81.9997H71.9997C71.9997 77.5185 76.4813 82 81.9997 82V72ZM81.9997 72H81.9997V62C76.4813 62 71.9997 66.4816 71.9997 72H81.9997ZM81.9997 72H91.9997C91.9997 66.4816 87.5182 62 81.9997 62V72ZM81.9997 72V82C87.5182 82 91.9997 77.5185 91.9997 72H81.9997Z" fill="#6FCF97" mask="url(#path-2-inside-1)"/>
<mask id="path-4-inside-2" fill="white">
<path d="M69.171 82.182C66.256 83.388 63.171 84 60 84C53.615 84 47.473 81.425 42.983 76.908C44.229 75.643 45 73.911 45 72C45 68.141 41.86 65 38 65C34.14 65 31 68.141 31 72C31 75.859 34.14 79 38 79C39.226 79 40.378 78.681 41.381 78.125C46.26 83.136 52.994 86 60 86C63.435 86 66.778 85.337 69.936 84.029C70.446 83.818 70.689 83.233 70.478 82.722C70.267 82.213 69.681 81.971 69.171 82.182ZM33 72C33 69.243 35.243 67 38 67C40.757 67 43 69.243 43 72C43 74.757 40.757 77 38 77C35.243 77 33 74.757 33 72Z"/>
</mask>
<path d="M69.171 82.182C66.256 83.388 63.171 84 60 84C53.615 84 47.473 81.425 42.983 76.908C44.229 75.643 45 73.911 45 72C45 68.141 41.86 65 38 65C34.14 65 31 68.141 31 72C31 75.859 34.14 79 38 79C39.226 79 40.378 78.681 41.381 78.125C46.26 83.136 52.994 86 60 86C63.435 86 66.778 85.337 69.936 84.029C70.446 83.818 70.689 83.233 70.478 82.722C70.267 82.213 69.681 81.971 69.171 82.182ZM33 72C33 69.243 35.243 67 38 67C40.757 67 43 69.243 43 72C43 74.757 40.757 77 38 77C35.243 77 33 74.757 33 72Z" fill="#6FCF97"/>
<path d="M69.171 82.182L71.0825 86.8022L71.0825 86.8022L69.171 82.182ZM42.983 76.908L39.4208 73.3993L35.949 76.9241L39.4369 80.4329L42.983 76.908ZM41.381 78.125L44.9634 74.637L42.2982 71.8997L38.9569 73.752L41.381 78.125ZM69.936 84.029L68.0245 79.4088L68.0227 79.4096L69.936 84.029ZM70.478 82.722L75.0995 80.8137L75.0969 80.8073L70.478 82.722ZM67.2595 77.5618C64.9532 78.516 62.5179 79 60 79V89C63.8241 89 67.5588 88.26 71.0825 86.8022L67.2595 77.5618ZM60 79C54.9552 79 50.0869 76.9622 46.5291 73.3831L39.4369 80.4329C44.8591 85.8878 52.2748 89 60 89V79ZM46.5452 80.4167C48.6686 78.2609 50 75.2854 50 72H40C40 72.5366 39.7894 73.0251 39.4208 73.3993L46.5452 80.4167ZM50 72C50 65.38 44.6219 60 38 60V70C39.0981 70 40 70.902 40 72H50ZM38 60C31.3781 60 26 65.38 26 72H36C36 70.902 36.9019 70 38 70V60ZM26 72C26 78.62 31.3781 84 38 84V74C36.9019 74 36 73.098 36 72H26ZM38 84C40.1046 84 42.0875 83.4502 43.8051 82.498L38.9569 73.752C38.6685 73.9118 38.3474 74 38 74V84ZM37.7986 81.613C43.6123 87.584 51.6354 91 60 91V81C54.3526 81 48.9077 78.688 44.9634 74.637L37.7986 81.613ZM60 91C64.088 91 68.0814 90.209 71.8493 88.6484L68.0227 79.4096C65.4746 80.465 62.782 81 60 81V91ZM71.8475 88.6492C74.9094 87.3824 76.3633 83.8743 75.0995 80.8137L65.8565 84.6303C65.0147 82.5917 65.9826 80.2536 68.0245 79.4088L71.8475 88.6492ZM75.0969 80.8073C73.8253 77.7398 70.311 76.2993 67.2595 77.5618L71.0825 86.8022C69.051 87.6427 66.7087 86.6862 65.8591 84.6367L75.0969 80.8073ZM38 72V62C32.4816 62 28 66.4816 28 72H38ZM38 72H48C48 66.4816 43.5184 62 38 62V72ZM38 72V82C43.5184 82 48 77.5184 48 72H38ZM38 72H28C28 77.5184 32.4816 82 38 82V72Z" fill="#6FCF97" mask="url(#path-4-inside-2)"/>
<mask id="path-6-inside-3" fill="white">
<path d="M34.9999 59.213C35.0239 59.215 35.0479 59.216 35.0709 59.216C35.5919 59.216 36.0299 58.814 36.0679 58.286C36.7799 48.197 43.6539 39.766 53.2879 36.972C54.1419 39.874 56.8249 42 59.9999 42C63.8599 42 66.9999 38.859 66.9999 35C66.9999 31.141 63.8599 28 59.9999 28C56.1489 28 53.0149 31.127 53.0009 34.975C42.4199 37.922 34.8509 47.12 34.0729 58.146C34.0339 58.696 34.4489 59.175 34.9999 59.213ZM59.9999 30C62.7569 30 64.9999 32.243 64.9999 35C64.9999 37.757 62.7569 40 59.9999 40C57.2429 40 54.9999 37.757 54.9999 35C54.9999 32.243 57.2429 30 59.9999 30Z"/>
</mask>
<path d="M34.9999 59.213C35.0239 59.215 35.0479 59.216 35.0709 59.216C35.5919 59.216 36.0299 58.814 36.0679 58.286C36.7799 48.197 43.6539 39.766 53.2879 36.972C54.1419 39.874 56.8249 42 59.9999 42C63.8599 42 66.9999 38.859 66.9999 35C66.9999 31.141 63.8599 28 59.9999 28C56.1489 28 53.0149 31.127 53.0009 34.975C42.4199 37.922 34.8509 47.12 34.0729 58.146C34.0339 58.696 34.4489 59.175 34.9999 59.213ZM59.9999 30C62.7569 30 64.9999 32.243 64.9999 35C64.9999 37.757 62.7569 40 59.9999 40C57.2429 40 54.9999 37.757 54.9999 35C54.9999 32.243 57.2429 30 59.9999 30Z" fill="#6FCF97"/>
<path d="M34.9999 59.213L35.4151 54.2303L35.3795 54.2273L35.3439 54.2248L34.9999 59.213ZM36.0679 58.286L41.055 58.6449L41.0554 58.638L36.0679 58.286ZM53.2879 36.972L58.0845 35.5605L56.6785 30.7826L51.8952 32.1699L53.2879 36.972ZM53.0009 34.975L54.3424 39.7917L57.9871 38.7766L58.0008 34.9932L53.0009 34.975ZM34.0729 58.146L39.0603 58.4997L39.0605 58.4979L34.0729 58.146ZM34.5846 64.1957C34.7433 64.209 34.9058 64.216 35.0709 64.216V54.216C35.1899 54.216 35.3044 54.221 35.4151 54.2303L34.5846 64.1957ZM35.0709 64.216C38.2023 64.216 40.8279 61.8 41.055 58.6449L31.0807 57.9271C31.2318 55.828 32.9814 54.216 35.0709 54.216V64.216ZM41.0554 58.638C41.6192 50.6498 47.0485 43.9875 54.6805 41.7741L51.8952 32.1699C40.2592 35.5445 31.9405 45.7442 31.0803 57.934L41.0554 58.638ZM48.4912 38.3835C49.9512 43.3448 54.5367 47 59.9999 47V37C59.113 37 58.3325 36.4032 58.0845 35.5605L48.4912 38.3835ZM59.9999 47C66.6217 47 71.9999 41.62 71.9999 35H61.9999C61.9999 36.098 61.098 37 59.9999 37V47ZM71.9999 35C71.9999 28.38 66.6217 23 59.9999 23V33C61.098 33 61.9999 33.902 61.9999 35H71.9999ZM59.9999 23C53.3918 23 48.0249 28.3572 48.0009 34.9568L58.0008 34.9932C58.0048 33.8968 58.9059 33 59.9999 33V23ZM51.6593 30.1583C39.0503 33.6702 30.0128 44.649 29.0853 57.7941L39.0605 58.4979C39.6889 49.591 45.7894 42.1738 54.3424 39.7917L51.6593 30.1583ZM29.0854 57.7923C28.8513 61.0941 31.3396 63.9724 34.6558 64.2012L35.3439 54.2248C37.5581 54.3776 39.2164 56.2979 39.0603 58.4997L29.0854 57.7923ZM59.9999 35H69.9999C69.9999 29.4816 65.5183 25 59.9999 25V35ZM59.9999 35V45C65.5183 45 69.9999 40.5184 69.9999 35H59.9999ZM59.9999 35H49.9999C49.9999 40.5184 54.4814 45 59.9999 45V35ZM59.9999 35V25C54.4814 25 49.9999 29.4816 49.9999 35H59.9999Z" fill="#6FCF97" mask="url(#path-6-inside-3)"/>
</svg>
