<svg width="120" height="120" viewBox="0 0 120 120" fill="none" xmlns="http://www.w3.org/2000/svg">
<circle cx="60" cy="60" r="60" fill="#6FCF97" fill-opacity="0.05"/>
<path d="M93.4807 66.9371C93.0047 66.223 81.5764 49.4531 60 49.4531C38.4236 49.4531 26.9953 66.223 26.5193 66.9371L26 67.7163L26.5193 68.4956C26.9953 69.2097 38.4236 85.9795 60 85.9795C81.5764 85.9795 93.0047 69.2097 93.4807 68.4956L94 67.7163L93.4807 66.9371ZM29.4305 67.715C31.2537 65.3458 37.4048 58.2028 47.4088 54.5201C43.9223 57.8481 41.7368 62.5273 41.7368 67.7163C41.7368 72.898 43.9158 77.5718 47.3936 80.8987C37.4156 77.211 31.2567 70.0794 29.4305 67.715ZM60 83.1698C51.4789 83.1698 44.5465 76.2374 44.5465 67.7163C44.5465 59.1952 51.4789 52.2628 60 52.2628C68.5211 52.2628 75.4535 59.1952 75.4535 67.7163C75.4535 76.2374 68.5211 83.1698 60 83.1698ZM72.5912 80.9126C76.0777 77.5845 78.2632 72.9054 78.2632 67.7163C78.2632 62.5347 76.0842 57.8609 72.6064 54.534C82.5845 58.2217 88.7433 65.3533 90.5695 67.7177C88.7463 70.0869 82.5952 77.2299 72.5912 80.9126Z" fill="#6FCF97"/>
<path d="M59.9999 60.6934C56.1269 60.6934 52.9756 63.8447 52.9756 67.7177C52.9756 71.5906 56.1269 74.742 59.9999 74.742C63.8729 74.742 67.0242 71.5906 67.0242 67.7177C67.0242 63.8447 63.8729 60.6934 59.9999 60.6934ZM59.9999 71.9323C57.6758 71.9323 55.7853 70.0417 55.7853 67.7177C55.7853 65.3936 57.6758 63.5031 59.9999 63.5031C62.324 63.5031 64.2145 65.3936 64.2145 67.7177C64.2145 70.0417 62.324 71.9323 59.9999 71.9323Z" fill="#6FCF97"/>
<path d="M61.4054 34H58.5957V43.834H61.4054V34Z" fill="#6FCF97"/>
<path d="M83.3672 39.8829L78.4512 48.4001L80.8847 49.8047L85.8007 41.2875L83.3672 39.8829Z" fill="#6FCF97"/>
<path d="M36.6305 39.8847L34.1973 41.2896L39.1143 49.8058L41.5475 48.401L36.6305 39.8847Z" fill="#6FCF97"/>
</svg>
