<?xml version="1.0" encoding="utf-8"?>
<!-- Generator: Adobe Illustrator 22.0.0, SVG Export Plug-In . SVG Version: 6.00 Build 0)  -->
<svg version="1.1" id="Layer_1" xmlns="http://www.w3.org/2000/svg" xmlns:xlink="http://www.w3.org/1999/xlink" x="0px" y="0px"
	 viewBox="0 0 104 125" style="enable-background:new 0 0 104 125;" xml:space="preserve">
<style type="text/css">
	.st0{fill:#6FCF97;}
</style>
<path class="st0" d="M52.1,26.9C34.4,26.9,20,41.3,20,59c0,9.2,4,18.1,10.8,24.1c5.1,5.1,4.6,15.9,4.5,16c0,0.6,0.1,1,0.6,1.5
	c0.3,0.3,0.9,0.6,1.4,0.6h29.4c0.6,0,1-0.2,1.4-0.6c0.3-0.3,0.6-0.9,0.6-1.5c0-0.1-0.6-11,4.5-16c0.1-0.1,0.2-0.2,0.3-0.3
	C80.3,76.6,84.2,68,84.2,59C84.2,41.3,69.8,26.9,52.1,26.9z M70.6,80.1c-0.1,0.1-0.3,0.3-0.3,0.5c-4.5,4.8-5.3,12.8-5.4,16.6H39.3
	c-0.1-3.8-0.9-12.1-5.8-17.1c-6.1-5.3-9.7-13-9.7-21.2c0-15.6,12.6-28.2,28.2-28.2s28.2,12.6,28.2,28.2
	C80.1,67.1,76.7,74.8,70.6,80.1z"/>
<path class="st0" d="M52,35.1c-1,0-2,0.9-2,2c0,1,0.9,2,2,2c11.7,0,21,9.5,21,21c0,1,0.9,2,2,2c1,0,2-0.9,2-2
	C77,46.3,65.8,35.1,52,35.1z"/>
<path class="st0" d="M64.8,103.4H39.2c-2.7,0-4.8,2.2-4.8,4.8s2.2,4.8,4.8,4.8h25.5c2.8-0.1,5-2.2,5-4.8S67.4,103.4,64.8,103.4z
	 M64.8,109.1H39.2c-0.5,0-0.9-0.3-0.9-0.9c0-0.6,0.3-0.9,0.9-0.9h25.5c0.5,0,0.9,0.3,0.9,0.9C65.6,108.7,65.3,109.1,64.8,109.1z"/>
<path class="st0" d="M61,115.1H43c-2.7,0-4.8,2.2-4.8,4.8s2.2,4.8,4.8,4.8h18c2.7,0,4.8-2.2,4.8-4.8C65.8,117.1,63.6,115.1,61,115.1
	z M61,120.7H43c-0.5,0-0.9-0.3-0.9-0.9c0-0.6,0.3-0.9,0.9-0.9h18c0.5,0,0.9,0.3,0.9,0.9C61.9,120.4,61.4,120.7,61,120.7z"/>
<path class="st0" d="M52,17.3c1.2,0,2-0.9,2-2V2c0-1-0.9-2-2-2c-1,0-2,0.9-2,2v13.4C50,16.4,50.9,17.3,52,17.3z"/>
<path class="st0" d="M84.6,9.9c-0.9-0.7-2.1-0.3-2.7,0.5l-7.4,11.1c-0.7,0.9-0.5,2.2,0.5,2.8c0.3,0.2,0.7,0.3,1,0.3
	c0.7,0,1.3-0.3,1.6-0.9l7.4-11.1C85.8,11.8,85.6,10.5,84.6,9.9z"/>
<path class="st0" d="M28.6,24.1c0.3,0,0.7-0.1,1-0.3c0.9-0.6,1.2-1.8,0.6-2.8L23,9.8c-0.6-0.9-1.8-1.2-2.8-0.6
	c-0.9,0.6-1.2,1.8-0.6,2.8l7.2,11.2C27.3,23.9,27.9,24.1,28.6,24.1z"/>
<path class="st0" d="M14.6,36.4L2.9,30c-0.9-0.5-2.2-0.1-2.7,0.8C-0.3,31.7,0,33,1.1,33.5l11.7,6.3c0.3,0.1,0.6,0.2,0.9,0.2
	c0.7,0,1.4-0.3,1.7-1C15.9,38.1,15.5,36.8,14.6,36.4z"/>
<path class="st0" d="M103.8,30.8c-0.5-0.9-1.7-1.3-2.7-0.8l-11.8,6.3c-0.9,0.5-1.3,1.7-0.8,2.7c0.3,0.7,1,1,1.7,1
	c0.3,0,0.7-0.1,0.9-0.2l11.8-6.3C103.9,33,104.3,31.7,103.8,30.8z"/>
</svg>
