<?xml version="1.0" encoding="utf-8"?>
<!-- Generator: Adobe Illustrator 22.0.0, SVG Export Plug-In . SVG Version: 6.00 Build 0)  -->
<svg version="1.1" id="Layer_1" xmlns="http://www.w3.org/2000/svg" xmlns:xlink="http://www.w3.org/1999/xlink" x="0px" y="0px"
	 viewBox="0 0 115 116" style="enable-background:new 0 0 115 116;" xml:space="preserve">
<style type="text/css">
	.st0{fill:#6FCF97;}
</style>
<g>
	<path class="st0" d="M21.1,97.8c0.5,0,1-0.2,1.4-0.6c0.7-0.7,0.7-2,0-2.7L7,79c-0.1-0.1-3.2-2.8-3.2-8.1V42.2
		c0-2.1,1.7-3.8,3.8-3.8c2.1,0,3.8,1.7,3.8,3.8v15.2c0,1.1,0.9,1.9,1.9,1.9c1.1,0,1.9-0.9,1.9-1.9V42.2c0-4.2-3.4-7.7-7.7-7.7
		c-4.2,0-7.7,3.4-7.7,7.7v28.8c0,7.2,4.3,10.9,4.4,10.9l15.3,15.3C20.1,97.6,20.6,97.8,21.1,97.8z"/>
	<path class="st0" d="M44.1,103.5H13.4c-1.1,0-1.9,0.9-1.9,1.9v7.7c0,1.1,0.9,1.9,1.9,1.9c1.1,0,1.9-0.9,1.9-1.9v-5.8h26.8v5.8
		c0,1.1,0.9,1.9,1.9,1.9c1.1,0,1.9-0.9,1.9-1.9v-7.7C46,104.4,45.1,103.5,44.1,103.5z"/>
	<path class="st0" d="M11.6,69c0.1,1.9,0.9,3.8,2.4,5.2l9.6,9.6c0.7,0.7,2,0.7,2.7,0c0.7-0.7,0.7-2,0-2.7l-9.6-9.6
		c-0.8-0.8-1.2-1.7-1.2-2.7c0-0.9,0.3-1.8,1-2.5c0.7-0.7,1.6-1,2.5-1c1,0,1.9,0.5,2.7,1.2L35.2,80c0.1,0.1,3.2,2.9,3.2,8.1v9.6
		c0,1.1,0.9,1.9,1.9,1.9c1.1,0,1.9-0.9,1.9-1.9v-9.6c0-7.1-4.3-10.9-4.4-10.9L24.4,63.8c-1.4-1.4-3.3-2.3-5.2-2.4
		c-2-0.1-3.9,0.7-5.4,2.1C12.3,65,11.5,66.9,11.6,69z"/>
	<path class="st0" d="M77.3,77.1c-0.2,0.2-4.5,4-4.5,11v9.6c0,1.1,0.9,1.9,1.9,1.9c1.1,0,1.9-0.9,1.9-1.9v-9.6c0-5.2,3.1-8,3.3-8.2
		l13.4-13.4c0.8-0.8,1.7-1.2,2.7-1.2c1,0,1.8,0.3,2.5,1c0.7,0.7,1,1.5,1,2.4c0,1-0.4,2-1.2,2.8l-9.6,9.6c-0.7,0.7-0.7,2,0,2.7
		c0.7,0.7,2,0.7,2.7,0l9.6-9.6c1.5-1.5,2.4-3.5,2.4-5.5c0-1.9-0.8-3.7-2.1-5.1c-1.5-1.5-3.4-2.2-5.4-2.1c-1.9,0.1-3.8,0.9-5.2,2.4
		L77.3,77.1z"/>
	<path class="st0" d="M92,21.1C92,9.5,82.5,0,70.9,0c-8.2,0-15.7,4.8-19.1,12.2c-0.4,1,0,2.1,0.9,2.5c1,0.4,2.1,0,2.5-0.9
		c2.8-6.1,9-10,15.6-10c9.5,0,17.2,7.7,17.2,17.3c0,11.3-11.4,29.1-30.7,40c-19.2-10.8-30.7-28.7-30.7-40c0-9.5,7.7-17.3,17.3-17.3
		c2.4,0,4.7,0.5,6.9,1.4c1,0.4,2.1,0,2.5-1c0.4-1,0-2.1-1-2.5C49.9,0.6,47,0,44.1,0C32.5,0,23,9.5,23,21.1c0,12.4,11.8,32,33.6,43.9
		c0.3,0.2,0.6,0.2,0.9,0.2c0.3,0,0.6-0.1,0.9-0.2C80.2,53,92,33.5,92,21.1z"/>
	<path class="st0" d="M107.3,34.5c-4.2,0-7.7,3.4-7.7,7.7v15.2c0,1.1,0.9,1.9,1.9,1.9s1.9-0.9,1.9-1.9V42.2c0-2.1,1.7-3.8,3.8-3.8
		c2.1,0,3.8,1.7,3.8,3.8v28.8c0,5.3-3,8-3.3,8.2L92.6,94.5c-0.7,0.7-0.7,2,0,2.7c0.4,0.4,0.9,0.6,1.4,0.6c0.5,0,1-0.2,1.4-0.6
		L110.5,82c0.2-0.2,4.5-3.9,4.5-11V42.2C115,37.9,111.6,34.5,107.3,34.5z"/>
	<path class="st0" d="M101.6,103.5H70.9c-1.1,0-1.9,0.9-1.9,1.9v7.7c0,1.1,0.9,1.9,1.9,1.9c1.1,0,1.9-0.9,1.9-1.9v-5.8h26.8v5.8
		c0,1.1,0.9,1.9,1.9,1.9s1.9-0.9,1.9-1.9v-7.7C103.5,104.4,102.6,103.5,101.6,103.5z"/>
	<path class="st0" d="M74.1,12c2.7,1,4.9,3.1,5.8,5.8c0.3,0.8,1,1.3,1.8,1.3c0.2,0,0.4,0,0.6-0.1c1-0.4,1.5-1.5,1.2-2.4
		c-1.4-3.8-4.3-6.8-8.2-8.2c-1-0.4-2.1,0.2-2.4,1.2C72.6,10.6,73.1,11.7,74.1,12z"/>
</g>
</svg>
